# xmcd
# Track frame offsets:
# 150
# 16882
# 31921
# 47863
# 70239
# 86183
# 99073
# 111492
# 122929
# 136166
# 154300
# 168173
#
# Disc length: 2429 seconds
# Revision: 0
# Processed by: cddbd v1.5.2PL0 Copyright (c) Steve Scherf et al.
# Submitted via: VisiTrax 2.11.3.279 - For more info visit www.synapsa.com
#
DISCID=9b097b0c
DTITLE=Williams. J. R. - Mustering Time
DYEAR=2010
DGENRE=Country
TTITLE0=I'll Be In Sydney Tonight
TTITLE1=Truck Stop Girl featuring Bill Chambers
TTITLE2=Mustering Time
TTITLE3=She Broke Her Promise
TTITLE4=Far North Queensland Tropical Blues
TTITLE5=You Turned The Lights On
TTITLE6=Hello And Welcome
TTITLE7=I'm A Cowboy
TTITLE8=John Deere Letter
TTITLE9=When I'm Over You featuring Tracey Killeen
TTITLE10=What The Farmer Thinks
TTITLE11=Darktown Strutters Ball
EXTD=
EXTT0=
EXTT1=
EXTT2=
EXTT3=
EXTT4=
EXTT5=
EXTT6=
EXTT7=
EXTT8=
EXTT9=
EXTT10=
EXTT11=
PLAYORDER=
